<svg data-name="Layer 1" xmlns="http://www.w3.org/2000/svg" viewBox="0 0 50.92 27.68"><title>Artboard 3</title><path d="M8.34 8.86l3.47 4.2.11-.13c.38-.4.73-.8 1.06-1.19s1.19-1.32 1.5-1.72l1.36 2.48a14.75 14.75 0 0 1-.92 1.16c-.37.44-.83.95-1.35 1.52l3.57 4.41h-3.62l-1.92-2.36A7.72 7.72 0 0 1 6.09 20a6.2 6.2 0 0 1-4.34-1.63A5.37 5.37 0 0 1 0 14.26a5.66 5.66 0 0 1 2.77-4.8L4 8.6l.09-.06.17-.14a6 6 0 0 1-1.91-4 4.22 4.22 0 0 1 1.31-3.18A4.69 4.69 0 0 1 7 0a4.66 4.66 0 0 1 3.29 1.19 3.9 3.9 0 0 1 1.3 3 3.8 3.8 0 0 1-.72 2.26 11.88 11.88 0 0 1-2.53 2.41zM6 10.5l-.16.11a14.65 14.65 0 0 0-2.44 2 2.43 2.43 0 0 0-.63 1.58 3.12 3.12 0 0 0 1 2.2 3.1 3.1 0 0 0 2.2 1q1.68 0 3.88-2.21zm.62-3.68l.24-.18c.41-.3.75-.57 1-.8a4.44 4.44 0 0 0 .58-.58 1.75 1.75 0 0 0 .37-1.14 1.62 1.62 0 0 0-.51-1.24A2 2 0 0 0 7 2.41a1.89 1.89 0 0 0-1.33.49 1.51 1.51 0 0 0-.53 1.18 2.63 2.63 0 0 0 .67 1.68l.72.87z" fill="#ea0091"/><path d="M13 6.47c.69.07 1.32.11 1.9.12h4c.7 0 1.39 0 2.08-.12v.41a3.6 3.6 0 0 0-1.44.44 1.3 1.3 0 0 0-.68 1.23 5.33 5.33 0 0 0 .45 1.82c.29.77.64 1.58 1 2.46l1.23 2.68a23.19 23.19 0 0 1 1 2.52c.11-.23.29-.6.53-1.12s.51-1.13.82-1.8.61-1.37.92-2.09.59-1.41.85-2 .48-1.19.65-1.67a3.65 3.65 0 0 0 .25-1 1 1 0 0 0-.18-.64A1.77 1.77 0 0 0 26 7.3a2.75 2.75 0 0 0-.65-.24q-.37-.08-.72-.18v-.41a13.83 13.83 0 0 0 1.57.12h3.1a13.49 13.49 0 0 0 1.53-.12v.41A3.17 3.17 0 0 0 29 8.05a16.16 16.16 0 0 0-1.67 2.38A28 28 0 0 0 26 13c-.39.86-.69 1.49-.89 1.9-.95 2-1.82 3.67-2.59 5.08S21 22.6 20.38 23.54a17.6 17.6 0 0 1-1.71 2.23A7.45 7.45 0 0 1 17.21 27a4.32 4.32 0 0 1-1.37.55 8.77 8.77 0 0 1-1.38.11 4.16 4.16 0 0 1-1.21-.17 3.18 3.18 0 0 1-1.06-.49 2.91 2.91 0 0 1-.75-.91 2.74 2.74 0 0 1-.29-1.3 1.77 1.77 0 0 1 .5-1.22 1.52 1.52 0 0 1 1.17-.57 2 2 0 0 1 1.27.39 1.5 1.5 0 0 1 .47 1.21 1.71 1.71 0 0 1-.27 1 1.26 1.26 0 0 0-.27.56c0 .14.16.22.49.26s.65.05 1 .05a3.11 3.11 0 0 0 2-.84 10.62 10.62 0 0 0 1.75-1.91 15.26 15.26 0 0 0 1.25-2.05 4.06 4.06 0 0 0 .49-1.25 3.57 3.57 0 0 0-.24-.7c-.16-.4-.38-.91-.65-1.54l-.92-2.09-1-2.31c-.35-.76-.69-1.5-1-2.21s-.64-1.33-.89-1.83-.42-.94-.58-1.26a2.57 2.57 0 0 0-.57-.77 3 3 0 0 0-.82-.46c-.32-.11-.74-.24-1.27-.37v-.41zM31.7 12a8 8 0 0 0 .46 2.94 5.28 5.28 0 0 0 1.16 1.84 3.93 3.93 0 0 0 1.5.95 6.07 6.07 0 0 0 4.07-.18A6.34 6.34 0 0 0 41 16.09l.58.54a11.28 11.28 0 0 1-2.86 2.29 7.39 7.39 0 0 1-3.51.78 5.75 5.75 0 0 1-2.63-.58 6.34 6.34 0 0 1-2-1.53 6.76 6.76 0 0 1-1.18-2.19 7.6 7.6 0 0 1 0-5 6.76 6.76 0 0 1 1.24-2.19 6.49 6.49 0 0 1 2-1.53 5.75 5.75 0 0 1 2.63-.58 6.29 6.29 0 0 1 4.33 1.46 6.93 6.93 0 0 1 2 4.47zm6.65-1a15.8 15.8 0 0 0-.27-1.65 3.31 3.31 0 0 0-.55-1.23 2.34 2.34 0 0 0-1-.75A4.11 4.11 0 0 0 35 7.08a2.51 2.51 0 0 0-1.31.36 3.59 3.59 0 0 0-1 .92A4 4 0 0 0 32 9.62a4.43 4.43 0 0 0-.23 1.38zM40.65 7.66v-.54a3.71 3.71 0 0 0 1.88-.55 5.24 5.24 0 0 0 1.36-1.3 7.72 7.72 0 0 0 1-1.74c.26-.63.49-1.25.7-1.84H46v4.95h4.67v1H46v8a6.35 6.35 0 0 0 .05.87 2.64 2.64 0 0 0 .2.77 1.26 1.26 0 0 0 1.25.75 3 3 0 0 0 1.7-.45 8.43 8.43 0 0 0 1.37-1.12l.31.34c-.39.34-.77.69-1.13 1a9.26 9.26 0 0 1-1.14 1 5.23 5.23 0 0 1-1.3.69 4.41 4.41 0 0 1-1.52.25 2.06 2.06 0 0 1-1.94-.87 4 4 0 0 1-.51-2.06V7.66z" fill="#12acef"/></svg>