<svg id="Layer_1" xmlns="http://www.w3.org/2000/svg" viewBox="0 0 121.9 121.8"><style>.st0{fill:#ecb32d}.st1{fill:#63c1a0}.st2{fill:#e01a59}.st3{fill:#331433}.st4{fill:#d62027}.st5{fill:#89d3df}.st6{fill:#258b74}.st7{fill:#819c3c}</style><path class="st0" d="M79 7.5c-1.9-5.7-8-8.8-13.7-7-5.7 1.9-8.8 8-7 13.7l28.1 86.4c1.9 5.3 7.7 8.3 13.2 6.7 5.8-1.7 9.3-7.8 7.4-13.4 0-.2-28-86.4-28-86.4z"/><path class="st1" d="M35.5 21.6c-1.9-5.7-8-8.8-13.7-7-5.7 1.9-8.8 8-7 13.7l28.1 86.4c1.9 5.3 7.7 8.3 13.2 6.7 5.8-1.7 9.3-7.8 7.4-13.4 0-.2-28-86.4-28-86.4z"/><path class="st2" d="M114.4 79c5.7-1.9 8.8-8 7-13.7-1.9-5.7-8-8.8-13.7-7L21.2 86.5c-5.3 1.9-8.3 7.7-6.7 13.2 1.7 5.8 7.8 9.3 13.4 7.4.2 0 86.5-28.1 86.5-28.1z"/><path class="st3" d="M39.2 103.5c5.6-1.8 12.9-4.2 20.7-6.7-1.8-5.6-4.2-12.9-6.7-20.7l-20.7 6.7 6.7 20.7z"/><path class="st4" d="M82.8 89.3c7.8-2.5 15.1-4.9 20.7-6.7-1.8-5.6-4.2-12.9-6.7-20.7l-20.7 6.7 6.7 20.7z"/><path class="st5" d="M100.2 35.5c5.7-1.9 8.8-8 7-13.7-1.9-5.7-8-8.8-13.7-7L7.1 42.9C1.8 44.8-1.2 50.6.4 56.1c1.7 5.8 7.8 9.3 13.4 7.4.2 0 86.4-28 86.4-28z"/><path class="st6" d="M25.1 59.9c5.6-1.8 12.9-4.2 20.7-6.7-2.5-7.8-4.9-15.1-6.7-20.7l-20.7 6.7 6.7 20.7z"/><path class="st7" d="M68.6 45.8c7.8-2.5 15.1-4.9 20.7-6.7-2.5-7.8-4.9-15.1-6.7-20.7l-20.7 6.7 6.7 20.7z"/></svg>