<svg id="71117c46-2e48-4ef6-9035-8b759cad01b7" data-name="Layer 1" xmlns="http://www.w3.org/2000/svg" viewBox="0 0 75 51"><title>Artboard 1</title><path d="M60,12.22a14,14,0,0,0-2,.16V4.08a1.5,1.5,0,0,0-.16-3H2.31a1.5,1.5,0,1,0,0,3h.3v41a5.31,5.31,0,0,0,5.31,5.31H52.65A5.32,5.32,0,0,0,58,45.1V41.43a15.59,15.59,0,0,0,2,.16,14.69,14.69,0,1,0,0-29.37Zm-2,4.85a10.2,10.2,0,1,1,2.66,20A10,10,0,0,1,58,36.74ZM52.65,49.41H7.92A4.32,4.32,0,0,1,3.61,45.1v-41H57v41A4.32,4.32,0,0,1,52.65,49.41ZM60,40.59a12.8,12.8,0,0,1-2-.18V37.79A11.2,11.2,0,1,0,60.62,15.7,11.2,11.2,0,0,0,58,16V13.39a14.06,14.06,0,0,1,2-.17,13.69,13.69,0,1,1,0,27.37Z" fill="#33a9e0"/><polygon points="15.18 23.23 16.23 23.23 16.23 18.42 19.48 18.42 19.48 17.54 16.23 17.54 16.23 14.05 20.57 14.05 20.57 13.17 15.18 13.17 15.18 23.23" fill="#33a9e0"/><path d="M22.09,23.22h1.13l.9-3h3.05l.9,3H29.2L25.64,12.33Zm2.28-3.83,1.27-4.07,1.28,4.07Z" fill="#33a9e0"/><path d="M34.21,23.42A2.61,2.61,0,0,0,37,20.77H35.94a1.66,1.66,0,0,1-1.69,1.77c-2,0-2.16-2.79-2.16-4.26s.14-4.42,2.26-4.42a1.44,1.44,0,0,1,1.46,1.49h1A2.44,2.44,0,0,0,34.33,13C31.5,13,31,16.05,31,18.25S31.44,23.42,34.21,23.42Z" fill="#33a9e0"/><polygon points="41.17 18.5 44.17 18.5 44.17 17.63 41.17 17.63 41.17 14.05 45.35 14.05 45.35 13.17 40.13 13.17 40.13 23.23 45.45 23.23 45.45 22.34 41.17 22.34 41.17 18.5" fill="#33a9e0"/><path d="M17.5,39.29c-2,0-2.17-2.79-2.17-4.26s.14-4.42,2.27-4.42a1.44,1.44,0,0,1,1.46,1.49h1.05a2.45,2.45,0,0,0-2.53-2.37c-2.83,0-3.29,3.07-3.29,5.28s.4,5.16,3.17,5.16a2.61,2.61,0,0,0,2.78-2.65h-1A1.67,1.67,0,0,1,17.5,39.29Z" fill="#33a9e0"/><path d="M22.09,40h1.13l.9-3h3.05l.9,3H29.2L25.64,29.09Zm2.28-3.84,1.27-4.07,1.28,4.07Z" fill="#33a9e0"/><polygon points="34 34.94 31.89 29.92 30.87 29.92 30.87 39.98 31.92 39.98 31.92 32.35 31.95 32.33 34 37.25 36.06 32.33 36.09 32.33 36.09 39.98 37.14 39.98 37.14 29.92 36.11 29.92 34 34.94" fill="#33a9e0"/><path d="M42.47,29.92H40.06V40h1V36H42c2,0,3.37-.91,3.37-3S44.29,29.92,42.47,29.92Zm-.21,5.23H41.1V30.8h1.23c1.24,0,2,.63,2,2.21A1.92,1.92,0,0,1,42.26,35.15Z" fill="#33a9e0"/></svg>