<svg version="1.1" id="Layer_1" xmlns="http://www.w3.org/2000/svg" x="0" y="0" viewBox="0 0 576 270" xml:space="preserve"><style>.st0{fill:#e01e5a}.st1{fill:#36c5f0}.st2{fill:#2eb67d}.st3{fill:#ecb22e}</style><path d="M206.6 165.9l5.6-13.1c6.1 4.6 14.2 6.9 22.2 6.9 5.9 0 9.6-2.3 9.6-5.7-.1-9.6-35.4-2.1-35.7-26.3-.1-12.3 10.8-21.8 26.3-21.8 9.2 0 18.4 2.3 24.9 7.5l-5.3 13.4c-6-3.8-13.5-6.6-20.6-6.6-4.8 0-8 2.3-8 5.2.1 9.5 35.7 4.3 36 27.4 0 12.6-10.6 21.4-25.9 21.4-11 0-21.2-2.6-29.1-8.3M423.2 148.1c-2.8 4.9-8.1 8.3-14.2 8.3-9 0-16.3-7.3-16.3-16.3s7.3-16.3 16.3-16.3c6.1 0 11.4 3.4 14.2 8.3l15.6-8.6c-5.8-10.4-17-17.5-29.8-17.5-18.8 0-34.1 15.3-34.1 34.1s15.3 34.1 34.1 34.1c12.8 0 23.9-7 29.8-17.5l-15.6-8.6zM269.7 77.6h19.5v95.3h-19.5zM446.4 77.6v95.3h19.4v-28.6l23.2 28.6h24.9L484.5 139l27.2-31.7h-23.8l-22.1 26.3v-56zM347.1 148.3c-2.8 4.6-8.6 8.1-15.2 8.1-9 0-16.3-7.3-16.3-16.3s7.3-16.3 16.3-16.3c6.6 0 12.4 3.6 15.2 8.4v16.1zm0-41v7.7c-3.2-5.4-11.1-9.1-19.4-9.1-17.1 0-30.6 15.1-30.6 34s13.5 34.2 30.6 34.2c8.3 0 16.2-3.7 19.4-9.1v7.7h19.5v-65.5c-.1.1-19.5.1-19.5.1z"/><g><path class="st0" d="M86.2 148.2c0 6.6-5.4 12-12 12s-12-5.4-12-12 5.4-12 12-12h12v12zM92.2 148.2c0-6.6 5.4-12 12-12s12 5.4 12 12v30c0 6.6-5.4 12-12 12s-12-5.4-12-12v-30z"/><path class="st1" d="M104.2 99.9c-6.6 0-12-5.4-12-12s5.4-12 12-12 12 5.4 12 12v12h-12zM104.2 106c6.6 0 12 5.4 12 12s-5.4 12-12 12H74.1c-6.6 0-12-5.4-12-12s5.4-12 12-12h30.1z"/><g><path class="st2" d="M152.4 118c0-6.6 5.4-12 12-12s12 5.4 12 12-5.4 12-12 12h-12v-12zM146.4 118c0 6.6-5.4 12-12 12s-12-5.4-12-12V87.9c0-6.6 5.4-12 12-12s12 5.4 12 12V118z"/></g><g><path class="st3" d="M134.4 166.2c6.6 0 12 5.4 12 12s-5.4 12-12 12-12-5.4-12-12v-12h12zM134.4 160.2c-6.6 0-12-5.4-12-12s5.4-12 12-12h30.1c6.6 0 12 5.4 12 12s-5.4 12-12 12h-30.1z"/></g></g></svg>