<svg xmlns="http://www.w3.org/2000/svg" viewBox="0 0 50.92 27.68"><path d="M11.53 12.94a.19.19 0 0 0 .28 0c.24-.28.76-.85 1-1.14s.92-1 1.29-1.47a.18.18 0 0 1 .3 0l1.09 2a.37.37 0 0 1 0 .39c-.21.28-.46.6-.76.95s-.75.85-1.22 1.36a.21.21 0 0 0 0 .25l3.15 3.87a.19.19 0 0 1-.15.3h-3a.34.34 0 0 1-.28-.13l-1.64-2a.18.18 0 0 0-.27 0 7.41 7.41 0 0 1-5.23 2.52 6 6 0 0 1-4.24-1.6 5.22 5.22 0 0 1-1.71-4 5.53 5.53 0 0 1 2.71-4.65l1.32-.92a.17.17 0 0 0 0-.26 5.7 5.7 0 0 1-1.7-3.76 4.11 4.11 0 0 1 1.24-3.1A4.62 4.62 0 0 1 7 .36a4.56 4.56 0 0 1 3.2 1.16 3.79 3.79 0 0 1 1.27 2.92 3.72 3.72 0 0 1-.7 2.21 11.36 11.36 0 0 1-2.34 2.24.18.18 0 0 0 0 .26zm-5.39-2.2a.19.19 0 0 0-.25 0 27.43 27.43 0 0 0-2.4 1.94 2.4 2.4 0 0 0-.62 1.55 3 3 0 0 0 .94 2.14 3 3 0 0 0 2.19.91c1.07 0 2.29-.68 3.67-2a.19.19 0 0 0 0-.26zm1.71-4.68a4.09 4.09 0 0 0 .56-.57 1.67 1.67 0 0 0 .37-1.11 1.6 1.6 0 0 0-.5-1.21 1.93 1.93 0 0 0-1.34-.46 1.84 1.84 0 0 0-1.29.48 1.45 1.45 0 0 0-.53 1.15A2.58 2.58 0 0 0 5.78 6l.74.9a.2.2 0 0 0 .26 0z" fill="#ea0091"/><path d="M30.35 7.48V7.1a.16.16 0 0 0-.16-.16H25a.16.16 0 0 0-.16.16v.38a.16.16 0 0 0 .16.16 1 1 0 0 1 .9.42 1.81 1.81 0 0 1-.05 1.65c-.15.35-2.2 5.12-3.13 7.25a.31.31 0 0 1-.28.18.29.29 0 0 1-.27-.19c-.93-2.26-2.88-7.57-3-7.94a.82.82 0 0 1 .11-.74 1.52 1.52 0 0 1 1.08-.63.16.16 0 0 0 .15-.16V7.1a.16.16 0 0 0-.16-.16h-6.59a.16.16 0 0 0-.16.16v.38a.16.16 0 0 0 .12.16 3.27 3.27 0 0 1 2.08 1.43c.14.28 4.54 10.19 4.7 10.61s.21.58.22.6a3.75 3.75 0 0 1-.44 1.11c-.94 1.9-2.3 4.11-4.51 4.29-.56.05-.66-.4-.76-1.13a2.59 2.59 0 0 0-.2-.85 1.51 1.51 0 0 0-1.1-.78 1.58 1.58 0 0 0-1.34.37 2.1 2.1 0 0 0-.31 2.42 3 3 0 0 0 2 1.43 5.51 5.51 0 0 0 4-.49 10.54 10.54 0 0 0 3.05-3.33 49.21 49.21 0 0 0 3.66-7.1c.78-1.77 1.6-3.59 2.56-5.31 1.22-2.17 2.08-3.14 2.89-3.27a.15.15 0 0 0 .13-.16zM35.51 6.55a6.08 6.08 0 0 0-5.68 4.17A7 7 0 0 0 33 19.2a5.73 5.73 0 0 0 2.56.56A7.74 7.74 0 0 0 41 17.12a.15.15 0 0 0 0-.2l-.54-.52a.17.17 0 0 0-.21 0 7.69 7.69 0 0 1-3.83 1.43 3.46 3.46 0 0 1-.78-.09 4.2 4.2 0 0 1-2.9-2.74 6.78 6.78 0 0 1-.41-2.24.27.27 0 0 1 .08-.22.31.31 0 0 1 .22-.09h8a.6.6 0 0 0 .48-.23.61.61 0 0 0 .14-.5c-.58-3.32-2.62-5.17-5.74-5.17zM38.07 11a.5.5 0 0 1-.39.18H32.8a.32.32 0 0 1-.24-.11.31.31 0 0 1-.06-.26 3.66 3.66 0 0 1 1.27-2.4 3.17 3.17 0 0 1 1.81-.58 3.05 3.05 0 0 1 .6.06c1.08.25 1.75 1.16 2 2.72a.5.5 0 0 1-.11.39zM50.62 16.4l-.14-.4a.16.16 0 0 0-.11-.1.17.17 0 0 0-.14 0s-1.19.88-1.61 1.16a2 2 0 0 1-1.58.35 1.11 1.11 0 0 1-.7-.73c-.43-1.09-.29-5.14-.21-7.31V7.98a.3.3 0 0 1 .3-.31h4a.16.16 0 0 0 .16-.16V6.36a.17.17 0 0 0-.16-.17h-4a.29.29 0 0 1-.3-.3V1.68a.16.16 0 0 0-.13-.16h-1a.16.16 0 0 0-.16.14c-.61 4.8-2.93 4.86-3.92 4.89a.17.17 0 0 0-.16.16v.85a.16.16 0 0 0 .16.16H43a.31.31 0 0 1 .3.31v8.22a5.11 5.11 0 0 0 .24 2 2.27 2.27 0 0 0 1.68 1.49 3.15 3.15 0 0 0 .44 0c1.91 0 4.26-2 5-2.86.14-.01.14-.01-.04-.48z" fill="#12acef"/></svg>